<svg width="141" height="19" viewBox="0 0 141 19" fill="none" xmlns="http://www.w3.org/2000/svg">
<g clip-path="url(#clip0_597_4225)">
<mask id="mask0_597_4225" style="mask-type:luminance" maskUnits="userSpaceOnUse" x="0" y="0" width="141" height="19">
<path d="M140.291 0.25H0.291016V18.2558H140.291V0.25Z" fill="white"/>
</mask>
<g mask="url(#mask0_597_4225)">
<path d="M60.7215 15.869C56.2282 15.869 52.8242 12.514 52.8242 8.0629C52.8242 3.61182 56.216 0.256836 60.7215 0.256836C63.3943 0.256836 65.8534 1.52449 67.2994 3.64723L67.4533 3.87326L65.3346 5.1872L65.1985 4.97479C64.2168 3.492 62.5869 2.641 60.7256 2.641C57.6593 2.641 55.3459 4.97207 55.3459 8.0629C55.3459 11.1537 57.6606 13.4848 60.7256 13.4848C62.5869 13.4848 64.2168 12.6352 65.1985 11.151L65.3346 10.94L67.4533 12.2526L67.2994 12.4799C65.8534 14.5959 63.3943 15.869 60.7215 15.869Z" fill="#00D4DA"/>
<path d="M80.0655 3.74008C78.9843 2.49829 77.3654 1.84473 75.3516 1.84473C71.6072 1.84473 68.7832 4.79668 68.7832 8.71265C68.7832 12.6286 71.6072 15.5806 75.3516 15.5806C77.3599 15.5806 78.9843 14.927 80.0655 13.6852V15.281H82.6443V2.14428H80.0655V3.74008ZM75.7505 13.078C73.2765 13.078 71.4097 11.2017 71.4097 8.71265C71.4097 6.22364 73.2765 4.34735 75.7505 4.34735C78.2246 4.34735 80.0655 6.22364 80.0655 8.71265C80.0655 11.2017 78.211 13.078 75.7505 13.078Z" fill="#00D4DA"/>
<path d="M92.7856 1.84473C90.9883 1.84473 89.4116 2.42205 88.4285 3.43644V2.14428H85.8496V15.281H88.4285V7.94063C88.4285 5.76206 89.8677 4.34735 92.0953 4.34735C94.218 4.34735 95.5891 5.73755 95.5891 7.88752V15.2783H98.1667V7.21762C98.1599 4.00423 96.0004 1.84473 92.7856 1.84473Z" fill="#00D4DA"/>
<path d="M106.085 11.9379L101.946 2.14258H99.002L104.772 15.2807H107.323L113.093 2.14258H110.226L106.085 11.9379Z" fill="#00D4DA"/>
<path d="M124.497 3.73871C123.417 2.49829 121.793 1.84473 119.783 1.84473C116.039 1.84473 113.215 4.79668 113.215 8.71265C113.215 12.6286 116.039 15.5806 119.783 15.5806C121.793 15.5806 123.417 14.9257 124.497 13.6852V15.281H127.076V2.14428H124.497V3.73871ZM124.497 8.71265C124.497 11.2017 122.643 13.078 120.182 13.078C117.722 13.078 115.843 11.2017 115.843 8.71265C115.843 6.22364 117.708 4.34735 120.182 4.34735C122.656 4.34735 124.497 6.22364 124.497 8.71265Z" fill="#00D4DA"/>
<path d="M135.463 7.42693C133.829 7.04159 132.41 6.708 132.41 5.59557C132.41 4.56348 133.687 4.09781 134.952 4.09781C136.21 4.0875 137.422 4.57041 138.329 5.44307L138.509 5.616L140.006 3.64439L139.855 3.50823C138.925 2.6654 137.314 1.65918 134.921 1.65918C132.334 1.65918 129.71 2.91458 129.71 5.71948C129.71 8.6619 132.4 9.33453 134.563 9.87509C136.107 10.2441 137.565 10.5927 137.565 11.7078C137.565 12.6922 136.467 13.3281 134.768 13.3281C133.227 13.3281 131.884 12.7835 130.882 11.7582L130.705 11.5757L129.199 13.5215L129.335 13.6576C130.756 15.0192 132.692 15.7654 134.782 15.7654C138.067 15.7654 140.275 14.0525 140.275 11.5008C140.291 8.57067 137.614 7.93344 135.463 7.42693Z" fill="#00D4DA"/>
<path d="M29.6158 2.13184H26.8926V15.2904H29.6158V2.13184Z" fill="#00D4DA"/>
<path d="M47.0552 2.13184H44.332V15.2904H47.0552V2.13184Z" fill="#00D4DA"/>
<path d="M16.7732 0.373906C16.3616 0.291655 15.9429 0.250152 15.5232 0.25C13.9572 0.251079 12.443 0.811179 11.2533 1.82946C10.6349 1.4215 9.93999 1.14355 9.21085 1.0125C8.84495 0.946866 8.47422 0.911794 8.1025 0.907652H8.02761C5.06749 0.907652 2.32522 2.81389 1.20326 5.64466C0.152098 8.29979 0.0145775 11.5159 0.783884 15.4782L0.798859 15.5585L3.24974 15.0833L3.23477 15.003C2.55397 11.4751 2.64247 8.7927 3.52615 6.56103C4.26278 4.69836 6.11319 3.39802 8.08071 3.39802C8.3136 3.40043 8.54588 3.4223 8.77513 3.46338C9.0933 3.52122 9.39999 3.6302 9.68332 3.78608C9.17471 4.71331 8.83449 5.72336 8.67846 6.76935C8.46767 8.13275 8.5297 9.52444 8.86091 10.8637C9.01886 11.4996 9.31432 12.4254 10.0414 13.1267C10.5818 13.6519 11.3031 13.9497 12.0566 13.9586C12.4658 13.9605 12.8691 13.8609 13.2303 13.6686C14.0963 13.2002 14.6055 12.2838 14.743 10.9454C14.9261 8.95775 14.6213 6.95548 13.8553 5.11228C13.6297 4.58048 13.352 4.07238 13.0261 3.59545C13.7473 3.04339 14.6299 2.74345 15.5382 2.74173C15.7882 2.7416 16.0377 2.76577 16.283 2.8139C18.1893 3.19378 19.7551 4.45599 20.6878 6.36496C22.1433 9.34278 21.8955 13.3432 20.0288 17.0658L19.992 17.138L22.2169 18.2545L22.2536 18.1823C24.4676 13.7707 24.7181 8.94383 22.9249 5.27159C21.6436 2.6505 19.4583 0.910378 16.7732 0.373906ZM11.128 7.15469C11.1969 6.70913 11.3091 6.27136 11.4629 5.84755C12.1442 7.36309 12.4192 9.02989 12.2608 10.684C12.1982 11.2926 12.0539 11.4601 12.0511 11.4682C11.9425 11.4561 11.8409 11.4082 11.7625 11.3321C11.5596 11.136 11.403 10.7956 11.2696 10.2591C11.0163 9.24405 10.9681 8.18862 11.128 7.15469Z" fill="#00D4DA"/>
<path d="M38.005 2.30567C37.1458 2.44183 36.0361 2.67058 35.0843 3.23973C34.0304 3.87151 33.4504 4.42705 32.9602 5.28213C32.2971 6.45447 32.2971 7.69081 32.3039 8.78826V15.2981H34.9209V8.86451C34.9209 7.83922 34.9713 7.1734 35.2927 6.59472C35.9517 5.41013 37.3487 5.05747 38.4938 4.88319C39.2668 4.77978 40.0464 4.73426 40.8262 4.74703H41.8147V2.13275H40.8616C39.9063 2.11586 38.9512 2.17368 38.005 2.30567Z" fill="#00D4DA"/>
</g>
</g>
<defs>
<clipPath id="clip0_597_4225">
<rect width="141" height="19" fill="white"/>
</clipPath>
</defs>
</svg>
